<svg id="Capa_1" enable-background="new 0 0 546.551 546.551" height="512" viewBox="0 0 546.551 546.551" width="512" xmlns="http://www.w3.org/2000/svg"><path d="m521.864 241.985-51.239-34.159c-4.487-3.036-10.158-3.703-15.312-1.835l-173.565 63.115-34.993-69.987c-8.74-17.463-26.303-28.322-45.835-28.322h-64.282v-34.159h68.319v-34.159h-170.798v34.159h68.319v34.159h-51.239c-28.255.001-51.239 22.985-51.239 51.24v170.797c0 28.255 22.984 51.239 51.239 51.239h223.12c15.245 0 29.606-6.722 39.363-18.431l150.732-180.888 38.463 25.653s18.948-28.422 18.947-28.422zm-234.395 161.79c-3.252 3.903-8.023 6.138-13.11 6.138h-223.12c-9.424 0-17.08-7.656-17.08-17.08v-170.796c0-9.424 7.656-17.08 17.08-17.08h149.681c6.522 0 12.376 3.619 15.278 9.441l41.798 83.597c3.903 7.773 13.01 11.375 21.116 8.406l128.415-46.686c0 .001-120.058 144.061-120.058 144.06z"/><path d="m512.392 273.274s-34.159 34.161-34.159 68.321c0 18.864 15.293 34.159 34.159 34.159 18.867 0 34.159-15.295 34.159-34.159 0-34.172-34.159-68.321-34.159-68.321z"/></svg>